<svg width="163" height="72" viewBox="0 0 163 72" fill="none" xmlns="http://www.w3.org/2000/svg">
<path d="M2.3961 38.7563C3.1386 49.8375 15.598 67.3875 36.7255 68.805C51.1648 69.7781 65.1148 62.9831 68.1355 46.9744C70.9142 32.2594 65.278 18.405 60.7949 12.2006C53.7974 2.52002 37.3892 -2.98686 19.8561 7.33502C4.08922 16.6331 1.82235 30.1669 2.3961 38.7563Z" fill="#95683D"/>
<path d="M6.72741 44.7412C14.3718 58.8037 36.7818 59.7487 48.9487 50.1018C62.308 39.51 65.4187 24.0525 58.1624 13.2525C49.7362 0.71433 30.3243 2.50308 18.4612 10.7662C6.82304 18.8775 0.956163 34.1268 6.72741 44.7412Z" fill="#B7D118"/>
<path d="M22.0502 27.8663C21.6058 29.205 23.3721 30.3188 23.1021 32.9175C22.7083 36.6581 20.1377 38.8125 20.8689 39.5438C21.7858 40.4606 24.5196 38.7394 28.0239 38.0981C31.9614 37.3781 32.6196 39.1725 33.6658 38.6213C34.9146 37.9631 34.2733 35.055 36.8158 32.7825C39.3077 30.5494 41.7377 30.4875 42.1989 29.7619C42.6602 29.0419 41.8052 26.9381 42.3958 24.3788C42.9864 21.8194 45.1071 19.4963 44.3871 18.5119C43.6671 17.5275 40.7139 20.3513 37.3446 20.1769C35.1171 20.0644 33.9302 18.9956 33.0133 19.4569C32.0964 19.9181 31.6858 22.7756 29.0758 25.0369C25.6558 28.0013 22.3764 26.8819 22.0502 27.8663Z" fill="#E5DDA0"/>
<path d="M44.8596 7.97064C42.9752 7.12689 41.6589 11.2219 40.9277 12.69C40.1964 14.1581 38.6946 17.0381 40.2471 17.8256C41.5689 18.5006 43.5489 14.0513 44.2296 12.69C44.9158 11.3288 46.4683 8.69064 44.8596 7.97064ZM46.9071 15.4181C47.5596 16.1775 48.9039 15.3 49.9783 14.3831C51.0246 13.4944 51.3677 12.3638 50.8896 11.745C50.1583 10.8 49.2133 11.0138 47.9027 12.2681C46.9408 13.1963 45.9621 14.3156 46.9071 15.4181ZM45.9114 20.2388C46.2714 21.7688 50.1977 20.8125 53.0608 20.2388C56.4696 19.5581 58.8996 19.2319 58.5452 17.3025C58.1514 15.1763 54.7596 16.3406 52.2058 16.9819C47.8521 18.0675 45.4671 18.3431 45.9114 20.2388ZM44.4096 25.7231C44.6852 27.6975 49.7027 26.7694 53.9496 26.7188C57.6733 26.6738 60.1708 26.3644 59.9796 24.7275C59.7771 23.0175 56.6046 23.3494 53.0439 23.6138C49.4721 23.8725 44.0889 23.4731 44.4096 25.7231ZM45.8383 30.3469C45.2477 31.9781 46.6933 32.3944 50.0852 33.9075C52.5939 35.0213 54.6696 36.3263 55.3446 34.605C55.9521 33.0581 53.7189 32.1806 51.7839 31.2806C48.6396 29.8069 46.4402 28.6931 45.8383 30.3469ZM41.5689 32.2088C39.8758 34.3856 44.0721 36.5456 47.1152 38.9025C50.1752 41.2763 52.5602 42.9863 53.5389 41.4956C54.5458 39.9544 51.5702 38.1713 48.9489 36.2813C46.3277 34.3969 42.4971 31.0106 41.5689 32.2088ZM37.3727 36.9731C36.2983 37.7888 36.7146 38.7394 38.3177 40.7925C39.9939 42.9413 41.2708 44.5669 41.7939 45.1969C42.3171 45.8269 44.0946 48.285 45.4502 47.3063C46.9127 46.2488 45.0789 44.0494 44.5558 43.3125C44.0327 42.5813 40.6183 38.34 39.7239 37.395C38.8296 36.45 38.1096 36.4106 37.3727 36.9731ZM32.5408 41.0513C31.5227 41.4169 31.3089 42.57 31.9896 45.8719C32.5971 48.8138 33.0133 49.5956 33.4352 50.9569C33.5927 51.4688 34.2171 53.7694 35.8427 53.3025C37.1814 52.9144 36.2139 49.9894 35.9552 48.7069C35.5727 46.8281 33.8514 40.5788 32.5408 41.0513ZM28.2433 39.8981C26.7246 39.5325 26.2689 42.2831 25.9933 45.5288C25.7852 47.9925 25.4814 50.7094 27.1352 50.7544C29.0983 50.805 29.0139 47.8125 29.1771 45.5513C29.3852 42.7219 29.5202 40.2075 28.2433 39.8981ZM18.5627 52.8244C20.4752 53.595 21.5271 50.4281 22.3314 48.42C23.3777 45.7988 24.2214 44.0044 24.5364 43.2169C24.8177 42.5194 24.6546 41.1975 23.4508 40.7756C22.2471 40.3538 21.5046 42.4744 20.6102 44.4094C19.7158 46.3444 16.6389 52.0538 18.5627 52.8244ZM12.9377 49.14C14.3721 50.175 15.2158 48.6394 16.8414 46.5919C18.4671 44.55 20.7677 42.0806 19.3614 41.1244C18.1127 40.275 16.4533 42.6769 15.0864 44.3588C13.7196 46.035 11.3683 48.0038 12.9377 49.14ZM7.86393 42.1594C8.37581 43.6613 10.5752 42.7838 13.0896 41.895C15.6039 41.0063 20.1658 39.8363 19.4852 38.0756C19.0689 37.0013 15.6771 38.1375 12.5327 39.0319C10.9689 39.4706 7.17768 40.14 7.86393 42.1594ZM7.84143 33.4519C7.98768 35.3363 10.9352 34.9425 14.2877 35.1C20.1152 35.37 21.4708 35.1394 21.5046 33.8288C21.5552 31.8375 17.9439 32.2369 14.1021 31.9444C11.0308 31.7081 7.65581 31.0894 7.84143 33.4519ZM11.1152 24.75C10.5527 26.0775 11.5202 27.0281 14.7433 28.1531C18.2758 29.385 19.7383 30.0094 20.4021 28.6088C21.0658 27.2081 18.4839 26.37 15.8346 25.2731C14.6196 24.7725 11.7846 23.175 11.1152 24.75ZM13.5733 18.5681C12.4427 20.115 14.2596 21.3694 17.1902 23.175C20.0983 24.9638 22.7927 26.9831 23.9233 25.2844C24.9302 23.7713 20.7171 21.3694 18.8833 20.2444C17.0496 19.1194 14.4958 17.2969 13.5733 18.5681ZM21.3752 11.7731C20.4189 12.3919 20.7002 14.0231 22.7871 17.1563C24.8739 20.2894 26.1396 22.6856 27.7146 21.9938C29.1377 21.3694 26.9777 17.6231 25.7739 15.5981C24.5983 13.6069 22.9389 10.7606 21.3752 11.7731ZM29.5483 8.24064C28.3052 8.43751 28.0746 10.3388 28.6821 13.2244C29.3346 16.335 30.0152 19.1813 31.4327 18.8044C32.8558 18.4275 32.4171 15.4631 31.9389 12.2513C31.6689 10.4625 31.1346 7.99314 29.5483 8.24064ZM38.1996 6.46314C36.7146 6.25501 36.1408 7.56564 35.6008 10.8675C35.0552 14.1694 34.2227 17.0663 35.7583 17.7413C37.3839 18.4556 38.3064 13.1906 38.7846 10.9463C39.1446 9.24189 39.8983 6.70501 38.1996 6.46314Z" fill="#7FB240"/>
<path d="M36.9167 14.1918C35.4149 13.8149 34.6611 14.9681 34.4474 16.4643C34.2336 17.9606 34.7624 18.7256 35.6005 18.8831C36.6074 19.0687 37.3217 18.4837 37.6986 17.1449C38.0811 15.8062 37.9067 14.4449 36.9167 14.1918ZM39.7911 18.3543C40.6236 18.7874 41.5686 18.3037 41.9961 17.2912C42.2436 16.7006 42.4068 15.3112 41.4674 14.9006C40.4324 14.4506 39.6618 14.9512 39.2624 16.0143C38.9418 16.8693 38.9699 17.9268 39.7911 18.3543ZM46.3217 15.9637C47.053 16.5768 48.0205 16.2281 48.5267 15.7274C48.9261 15.3281 49.2411 14.3999 48.6055 13.7081C47.9699 13.0162 46.9349 13.2862 46.4849 13.7587C46.0293 14.2424 45.4949 15.2774 46.3217 15.9637ZM49.6124 19.2543C49.8317 20.2949 48.9993 21.0599 47.6774 21.2962C46.3499 21.5324 45.6861 21.0824 45.5005 20.2612C45.3149 19.4399 45.9224 18.5906 46.8786 18.2981C47.8349 18.0056 49.348 18.0056 49.6124 19.2543ZM44.263 25.7231C44.3136 26.9437 45.5905 27.2418 46.5468 27.1574C47.7674 27.0506 48.7236 26.4937 48.6955 25.5374C48.6674 24.5812 47.7786 23.9962 46.4118 24.0243C45.2418 24.0524 44.2011 24.3956 44.263 25.7231ZM45.3655 30.0824C44.9549 30.9374 45.4161 31.7531 46.4005 32.1806C47.3849 32.6024 48.7067 32.3156 48.8924 31.4887C49.078 30.6674 48.628 29.7393 47.5143 29.4468C46.4005 29.1543 45.7086 29.3681 45.3655 30.0824ZM40.798 31.9668C40.1005 32.8049 40.4549 33.8006 41.5405 34.7793C42.6261 35.7581 43.9143 35.8537 44.5668 35.0999C45.388 34.1437 44.4599 32.8162 43.5318 32.0737C42.6036 31.3312 41.3324 31.3312 40.798 31.9668ZM36.208 35.7356C35.1618 36.6356 35.8086 37.9406 36.5793 38.8912C37.3499 39.8474 38.6211 40.2187 39.4199 39.5268C40.2186 38.8349 40.1118 37.4849 38.8911 36.2868C37.9068 35.3306 36.9505 35.0999 36.208 35.7356ZM31.9611 39.6618C30.7911 39.9993 30.898 41.2256 31.1399 42.2099C31.3761 43.1943 32.3155 44.0043 33.1818 43.6949C34.0818 43.3743 34.3236 42.6318 34.0593 41.3606C33.7949 40.0893 32.788 39.4256 31.9611 39.6618ZM28.513 38.8124C27.5511 38.7224 26.9493 39.4256 26.6568 40.6181C26.3643 41.8106 26.9493 42.8737 27.928 42.9806C28.9068 43.0875 29.6549 42.1593 29.7336 40.8824C29.8124 39.6056 29.3624 38.8912 28.513 38.8124ZM24.3224 40.1962C22.9724 39.5381 22.0949 40.8599 21.7743 41.5518C21.4536 42.2437 21.1611 43.8581 22.2524 44.3362C23.338 44.8143 24.3055 43.7231 24.6936 42.8512C25.1155 41.8949 25.2505 40.6462 24.3224 40.1962ZM17.713 43.0312C18.5624 43.8806 19.6705 42.8849 19.918 42.5812C20.3174 42.0749 20.323 41.2481 19.918 40.8037C19.3893 40.2187 18.5399 40.4606 18.0055 40.8824C17.4711 41.3099 17.0493 42.3674 17.713 43.0312ZM18.1349 37.4849C17.4261 37.6087 16.5936 38.1487 16.7793 39.0487C16.9649 39.9487 17.7355 40.2187 18.6636 40.0331C19.5918 39.8474 20.098 38.9981 19.9911 38.3343C19.8899 37.6706 18.8774 37.3556 18.1349 37.4849ZM17.0211 33.8006C16.9761 34.8356 17.9268 35.3024 19.3555 35.4206C21.2905 35.5781 22.0949 34.8299 22.1174 33.6431C22.1399 32.5518 21.133 32.0231 19.5693 32.0512C18.0055 32.0793 17.0774 32.5799 17.0211 33.8006ZM17.9999 27.4837C17.5049 28.2543 18.028 29.5818 19.1474 29.7112C20.2724 29.8406 21.0936 28.8168 20.7224 27.7199C20.3511 26.6174 18.7143 26.3756 17.9999 27.4837ZM20.1261 22.9162C19.4118 24.0862 20.233 25.1718 21.718 25.8637C23.0118 26.4656 24.0018 26.3418 24.5024 25.5712C25.0086 24.8006 24.6093 23.6081 23.4393 22.8656C22.0949 22.0049 20.8124 21.8024 20.1261 22.9162ZM26.1505 19.1474C25.4811 19.5187 24.8736 20.5818 25.993 22.1174C26.7636 23.1806 27.9561 23.3662 28.5693 23.0174C29.098 22.7193 29.3905 21.3187 28.7043 20.2556C28.1193 19.3724 27.0561 18.6468 26.1505 19.1474ZM30.8474 15.5643C29.9418 15.6881 29.548 16.9706 29.863 17.8987C30.1555 18.7481 30.7911 19.3331 31.6967 19.1474C32.5967 18.9618 32.6811 17.6906 32.5968 17.2124C32.518 16.7343 32.0399 15.4068 30.8474 15.5643Z" fill="#303030"/>
<path d="M80.3097 8.81818V35H73.9815V8.81818H80.3097ZM95.4428 15.3636V19.9659H82.8121V15.3636H95.4428ZM85.4457 35V14.3665C85.4457 12.8494 85.7312 11.5923 86.3022 10.5952C86.8732 9.58949 87.6658 8.83949 88.68 8.34517C89.6942 7.84233 90.8661 7.59091 92.1957 7.59091C93.065 7.59091 93.8832 7.65909 94.6502 7.79545C95.4258 7.9233 96.0011 8.03835 96.3761 8.14062L95.3789 12.7173C95.1488 12.6406 94.8675 12.5767 94.5352 12.5256C94.2113 12.4744 93.9045 12.4489 93.6147 12.4489C92.8817 12.4489 92.3789 12.6108 92.1062 12.9347C91.8335 13.2585 91.6971 13.7017 91.6971 14.2642V35H85.4457ZM98.4503 35V15.3636H104.523V18.9432H104.727C105.085 17.6477 105.669 16.6847 106.479 16.054C107.288 15.4148 108.23 15.0952 109.304 15.0952C109.594 15.0952 109.892 15.1165 110.199 15.1591C110.506 15.1932 110.791 15.2486 111.055 15.3253V20.7585C110.757 20.6562 110.365 20.5753 109.879 20.5156C109.402 20.456 108.976 20.4261 108.601 20.4261C107.859 20.4261 107.19 20.5923 106.594 20.9247C106.006 21.2486 105.541 21.7045 105.2 22.2926C104.868 22.8722 104.702 23.554 104.702 24.3381V35H98.4503ZM126.272 26.5241V15.3636H132.51V35H126.553V31.3438H126.348C125.914 32.5455 125.172 33.5 124.124 34.2074C123.084 34.9062 121.827 35.2557 120.353 35.2557C119.015 35.2557 117.838 34.9489 116.824 34.3352C115.81 33.7216 115.022 32.8651 114.459 31.7656C113.897 30.6577 113.611 29.3622 113.603 27.8793V15.3636H119.854V26.652C119.863 27.7173 120.144 28.5568 120.698 29.1705C121.252 29.7841 122.006 30.0909 122.961 30.0909C123.583 30.0909 124.141 29.9545 124.635 29.6818C125.138 29.4006 125.534 28.9957 125.824 28.4673C126.123 27.9304 126.272 27.2827 126.272 26.5241ZM136.489 35V15.3636H142.741V35H136.489ZM139.621 13.0753C138.744 13.0753 137.989 12.7855 137.359 12.206C136.728 11.6179 136.413 10.9105 136.413 10.0838C136.413 9.26562 136.728 8.56676 137.359 7.98722C137.989 7.39915 138.744 7.10511 139.621 7.10511C140.508 7.10511 141.262 7.39915 141.884 7.98722C142.515 8.56676 142.83 9.26562 142.83 10.0838C142.83 10.9105 142.515 11.6179 141.884 12.206C141.262 12.7855 140.508 13.0753 139.621 13.0753ZM157.804 15.3636V19.9659H145.416V15.3636H157.804ZM148.011 10.6591H154.262V28.8253C154.262 29.2088 154.322 29.5199 154.441 29.7585C154.569 29.9886 154.752 30.1548 154.991 30.2571C155.23 30.3509 155.515 30.3977 155.848 30.3977C156.086 30.3977 156.338 30.3764 156.602 30.3338C156.875 30.2827 157.079 30.2401 157.216 30.206L158.162 34.7188C157.863 34.804 157.441 34.9105 156.896 35.0384C156.359 35.1662 155.716 35.2472 154.966 35.2812C153.5 35.3494 152.243 35.179 151.194 34.7699C150.154 34.3523 149.358 33.7045 148.804 32.8267C148.258 31.9489 147.994 30.8452 148.011 29.5156V10.6591Z" fill="black"/>
<path d="M81.1222 47.1665L79.2937 47.4904C79.2172 47.2565 79.0958 47.0339 78.9293 46.8224C78.7674 46.611 78.547 46.4379 78.2681 46.3029C77.9892 46.168 77.6406 46.1005 77.2223 46.1005C76.651 46.1005 76.1742 46.2287 75.7919 46.4851C75.4096 46.737 75.2184 47.0631 75.2184 47.4634C75.2184 47.8098 75.3466 48.0887 75.603 48.3001C75.8594 48.5115 76.2732 48.6847 76.8445 48.8196L78.4908 49.1974C79.4444 49.4179 80.1551 49.7575 80.6229 50.2163C81.0907 50.6751 81.3246 51.2711 81.3246 52.0043C81.3246 52.625 81.1446 53.1783 80.7848 53.6641C80.4295 54.1454 79.9324 54.5232 79.2937 54.7976C78.6594 55.072 77.924 55.2092 77.0874 55.2092C75.9268 55.2092 74.98 54.9618 74.2468 54.467C73.5136 53.9677 73.0638 53.2592 72.8974 52.3416L74.8473 52.0447C74.9688 52.553 75.2184 52.9376 75.5962 53.1985C75.9741 53.4549 76.4666 53.5831 77.0739 53.5831C77.7351 53.5831 78.2636 53.4459 78.6594 53.1715C79.0553 52.8926 79.2532 52.553 79.2532 52.1527C79.2532 51.8288 79.1317 51.5567 78.8888 51.3363C78.6504 51.1159 78.2839 50.9495 77.7891 50.837L76.0348 50.4524C75.0677 50.232 74.3525 49.8812 73.8892 49.3999C73.4304 48.9186 73.201 48.3091 73.201 47.5714C73.201 46.9596 73.3719 46.4244 73.7138 45.9656C74.0556 45.5067 74.5279 45.1491 75.1307 44.8928C75.7334 44.6319 76.4239 44.5014 77.2021 44.5014C78.3221 44.5014 79.2037 44.7443 79.8469 45.2301C80.4902 45.7114 80.9152 46.3569 81.1222 47.1665ZM85.5601 48.8466V55H83.5427V41.1818H85.5331V46.3232H85.6613C85.9042 45.7654 86.2753 45.3223 86.7746 44.994C87.2739 44.6656 87.9261 44.5014 88.7313 44.5014C89.442 44.5014 90.0627 44.6476 90.5935 44.94C91.1288 45.2324 91.5426 45.6687 91.835 46.2489C92.1318 46.8247 92.2803 47.5444 92.2803 48.408V55H90.2629V48.6509C90.2629 47.8907 90.0672 47.3015 89.6759 46.8832C89.2845 46.4603 88.7403 46.2489 88.0431 46.2489C87.5663 46.2489 87.1389 46.3501 86.7611 46.5526C86.3878 46.755 86.0931 47.0518 85.8772 47.4432C85.6658 47.83 85.5601 48.2978 85.5601 48.8466ZM99.3378 55.2092C98.3662 55.2092 97.5183 54.9865 96.7941 54.5412C96.0699 54.0959 95.5077 53.4729 95.1073 52.6722C94.707 51.8716 94.5068 50.936 94.5068 49.8654C94.5068 48.7904 94.707 47.8503 95.1073 47.0451C95.5077 46.2399 96.0699 45.6147 96.7941 45.1694C97.5183 44.7241 98.3662 44.5014 99.3378 44.5014C100.309 44.5014 101.157 44.7241 101.881 45.1694C102.606 45.6147 103.168 46.2399 103.568 47.0451C103.969 47.8503 104.169 48.7904 104.169 49.8654C104.169 50.936 103.969 51.8716 103.568 52.6722C103.168 53.4729 102.606 54.0959 101.881 54.5412C101.157 54.9865 100.309 55.2092 99.3378 55.2092ZM99.3445 53.5156C99.9743 53.5156 100.496 53.3492 100.91 53.0163C101.324 52.6835 101.63 52.2404 101.828 51.6871C102.03 51.1339 102.131 50.5244 102.131 49.8587C102.131 49.1974 102.03 48.5902 101.828 48.0369C101.63 47.4792 101.324 47.0316 100.91 46.6942C100.496 46.3569 99.9743 46.1882 99.3445 46.1882C98.7103 46.1882 98.184 46.3569 97.7657 46.6942C97.3519 47.0316 97.0438 47.4792 96.8414 48.0369C96.6434 48.5902 96.5445 49.1974 96.5445 49.8587C96.5445 50.5244 96.6434 51.1339 96.8414 51.6871C97.0438 52.2404 97.3519 52.6835 97.7657 53.0163C98.184 53.3492 98.7103 53.5156 99.3445 53.5156ZM106.421 58.8864V44.6364H108.391V46.3164H108.559C108.676 46.1005 108.845 45.8509 109.066 45.5675C109.286 45.2841 109.592 45.0367 109.983 44.8253C110.374 44.6094 110.892 44.5014 111.535 44.5014C112.372 44.5014 113.118 44.7128 113.775 45.1357C114.432 45.5585 114.947 46.168 115.32 46.9641C115.698 47.7603 115.887 48.7184 115.887 49.8384C115.887 50.9585 115.7 51.9188 115.327 52.7195C114.954 53.5156 114.441 54.1296 113.789 54.5614C113.136 54.9888 112.392 55.2024 111.555 55.2024C110.925 55.2024 110.41 55.0967 110.01 54.8853C109.614 54.6739 109.304 54.4265 109.079 54.1431C108.854 53.8597 108.681 53.6078 108.559 53.3874H108.438V58.8864H106.421ZM108.398 49.8182C108.398 50.5469 108.503 51.1856 108.715 51.7344C108.926 52.2831 109.232 52.7127 109.632 53.0231C110.033 53.329 110.523 53.4819 111.103 53.4819C111.706 53.4819 112.21 53.3222 112.615 53.0028C113.019 52.679 113.325 52.2404 113.532 51.6871C113.744 51.1339 113.849 50.5109 113.849 49.8182C113.849 49.1345 113.746 48.5205 113.539 47.9762C113.336 47.4319 113.031 47.0024 112.621 46.6875C112.216 46.3726 111.71 46.2152 111.103 46.2152C110.518 46.2152 110.024 46.3659 109.619 46.6673C109.218 46.9686 108.915 47.3892 108.708 47.929C108.501 48.4687 108.398 49.0985 108.398 49.8182ZM125.193 48.8466V55H123.176V41.1818H125.166V46.3232H125.294C125.537 45.7654 125.908 45.3223 126.407 44.994C126.907 44.6656 127.559 44.5014 128.364 44.5014C129.075 44.5014 129.696 44.6476 130.226 44.94C130.762 45.2324 131.175 45.6687 131.468 46.2489C131.765 46.8247 131.913 47.5444 131.913 48.408V55H129.896V48.6509C129.896 47.8907 129.7 47.3015 129.309 46.8832C128.917 46.4603 128.373 46.2489 127.676 46.2489C127.199 46.2489 126.772 46.3501 126.394 46.5526C126.021 46.755 125.726 47.0518 125.51 47.4432C125.299 47.83 125.193 48.2978 125.193 48.8466ZM139.072 55.2092C138.051 55.2092 137.171 54.991 136.434 54.5547C135.7 54.1139 135.134 53.4954 134.733 52.6992C134.338 51.8986 134.14 50.9607 134.14 49.8857C134.14 48.8241 134.338 47.8885 134.733 47.0788C135.134 46.2692 135.691 45.6372 136.407 45.1829C137.126 44.7286 137.968 44.5014 138.93 44.5014C139.515 44.5014 140.082 44.5981 140.63 44.7915C141.179 44.985 141.672 45.2886 142.108 45.7024C142.544 46.1162 142.888 46.6538 143.14 47.315C143.392 47.9717 143.518 48.7701 143.518 49.7102V50.4254H135.28V48.9141H141.541C141.541 48.3833 141.433 47.9132 141.217 47.5039C141.002 47.0901 140.698 46.764 140.307 46.5256C139.92 46.2872 139.465 46.168 138.944 46.168C138.377 46.168 137.882 46.3074 137.459 46.5863C137.041 46.8607 136.717 47.2205 136.488 47.6658C136.263 48.1067 136.15 48.5857 136.15 49.103V50.2837C136.15 50.9764 136.272 51.5657 136.515 52.0515C136.762 52.5373 137.106 52.9084 137.547 53.1648C137.988 53.4167 138.503 53.5426 139.092 53.5426C139.474 53.5426 139.823 53.4886 140.138 53.3807C140.453 53.2682 140.725 53.1018 140.954 52.8814C141.184 52.661 141.359 52.3888 141.481 52.065L143.39 52.4091C143.237 52.9714 142.963 53.4639 142.567 53.8867C142.176 54.305 141.683 54.6312 141.089 54.8651C140.5 55.0945 139.828 55.2092 139.072 55.2092ZM145.757 55V44.6364H147.706V46.2827H147.814C148.003 45.7249 148.336 45.2863 148.813 44.967C149.294 44.6431 149.839 44.4812 150.446 44.4812C150.572 44.4812 150.72 44.4857 150.891 44.4947C151.067 44.5037 151.204 44.5149 151.303 44.5284V46.4581C151.222 46.4356 151.078 46.4109 150.871 46.3839C150.664 46.3524 150.457 46.3366 150.25 46.3366C149.773 46.3366 149.348 46.4379 148.975 46.6403C148.606 46.8382 148.314 47.1148 148.098 47.4702C147.882 47.821 147.774 48.2214 147.774 48.6712V55H145.757ZM157.144 55.2092C156.123 55.2092 155.244 54.991 154.506 54.5547C153.773 54.1139 153.206 53.4954 152.806 52.6992C152.41 51.8986 152.212 50.9607 152.212 49.8857C152.212 48.8241 152.41 47.8885 152.806 47.0788C153.206 46.2692 153.764 45.6372 154.479 45.1829C155.199 44.7286 156.04 44.5014 157.002 44.5014C157.587 44.5014 158.154 44.5981 158.703 44.7915C159.251 44.985 159.744 45.2886 160.18 45.7024C160.617 46.1162 160.961 46.6538 161.213 47.315C161.465 47.9717 161.59 48.7701 161.59 49.7102V50.4254H153.352V48.9141H159.614C159.614 48.3833 159.506 47.9132 159.29 47.5039C159.074 47.0901 158.77 46.764 158.379 46.5256C157.992 46.2872 157.538 46.168 157.016 46.168C156.449 46.168 155.954 46.3074 155.532 46.5863C155.113 46.8607 154.789 47.2205 154.56 47.6658C154.335 48.1067 154.223 48.5857 154.223 49.103V50.2837C154.223 50.9764 154.344 51.5657 154.587 52.0515C154.834 52.5373 155.178 52.9084 155.619 53.1648C156.06 53.4167 156.575 53.5426 157.164 53.5426C157.547 53.5426 157.895 53.4886 158.21 53.3807C158.525 53.2682 158.797 53.1018 159.027 52.8814C159.256 52.661 159.431 52.3888 159.553 52.065L161.462 52.4091C161.309 52.9714 161.035 53.4639 160.639 53.8867C160.248 54.305 159.755 54.6312 159.161 54.8651C158.572 55.0945 157.9 55.2092 157.144 55.2092Z" fill="black"/>
</svg>
