<svg width="22" height="22" viewBox="0 0 22 22" fill="none" xmlns="http://www.w3.org/2000/svg">
<path d="M11 2C8.61306 2 6.32387 2.94821 4.63604 4.63604C2.94822 6.32387 2.00001 8.61305 2.00001 11C1.9969 12.9328 2.61883 14.8147 3.77301 16.365C4.11335 15.3823 4.75152 14.5302 5.59873 13.9271C6.44593 13.3239 7.46006 12.9999 8.50001 13H13.5C14.54 12.9999 15.5541 13.3239 16.4013 13.9271C17.2485 14.5302 17.8867 15.3823 18.227 16.365C19.3814 14.8148 20.0033 12.9328 20 11C20 8.61305 19.0518 6.32387 17.364 4.63604C15.6761 2.94821 13.387 2 11 2ZM16.5 18.125V18C16.5 17.2044 16.1839 16.4413 15.6213 15.8787C15.0587 15.3161 14.2957 15 13.5 15H8.50001C7.70436 15 6.94129 15.3161 6.37869 15.8787C5.81608 16.4413 5.50001 17.2044 5.50001 18V18.125C7.07403 19.3438 9.00925 20.0036 11 20C13.072 20 14.979 19.3 16.5 18.125ZM5.83607e-06 11C5.83607e-06 4.925 4.92501 0 11 0C17.075 0 22 4.925 22 11C22.0014 12.5891 21.6579 14.1595 20.9932 15.6029C20.3285 17.0462 19.3585 18.3281 18.15 19.36C16.1593 21.0671 13.6224 22.0037 11 22C8.37759 22.0037 5.84075 21.0671 3.85001 19.36C2.6414 18.3283 1.67121 17.0464 1.00649 15.603C0.341773 14.1596 -0.0016327 12.5891 5.83607e-06 11ZM11 5C10.337 5 9.70108 5.26339 9.23224 5.73223C8.7634 6.20107 8.50001 6.83696 8.50001 7.5C8.50001 8.16304 8.7634 8.79893 9.23224 9.26777C9.70108 9.73661 10.337 10 11 10C11.663 10 12.2989 9.73661 12.7678 9.26777C13.2366 8.79893 13.5 8.16304 13.5 7.5C13.5 6.83696 13.2366 6.20107 12.7678 5.73223C12.2989 5.26339 11.663 5 11 5ZM6.50001 7.5C6.50001 6.30653 6.97411 5.16193 7.81803 4.31802C8.66194 3.47411 9.80653 3 11 3C12.1935 3 13.3381 3.47411 14.182 4.31802C15.0259 5.16193 15.5 6.30653 15.5 7.5C15.5 8.69347 15.0259 9.83807 14.182 10.682C13.3381 11.5259 12.1935 12 11 12C9.80653 12 8.66194 11.5259 7.81803 10.682C6.97411 9.83807 6.50001 8.69347 6.50001 7.5Z" fill="black"/>
</svg>
