<svg width="13" height="12" viewBox="0 0 13 12" fill="none" xmlns="http://www.w3.org/2000/svg">
<path d="M8.06166 10.7726C8.20226 10.632 8.28125 10.4412 8.28125 10.2423C8.28125 10.0435 8.20226 9.85274 8.06166 9.7121L4.34916 5.9996L8.06166 2.2871C8.19828 2.14565 8.27387 1.95619 8.27217 1.75955C8.27046 1.5629 8.19158 1.37479 8.05252 1.23573C7.91347 1.09668 7.72536 1.0178 7.52871 1.01609C7.33206 1.01438 7.14261 1.08998 7.00116 1.2266L2.75841 5.46935C2.61781 5.60999 2.53882 5.80072 2.53882 5.9996C2.53882 6.19847 2.61781 6.3892 2.75841 6.52985L7.00116 10.7726C7.14181 10.9132 7.33254 10.9922 7.53141 10.9922C7.73028 10.9922 7.92101 10.9132 8.06166 10.7726Z" fill="black"/>
</svg>
