<svg width="12" height="12" viewBox="0 0 12 12" fill="none" xmlns="http://www.w3.org/2000/svg">
<path d="M3.9774 1.2274C3.8368 1.36805 3.75781 1.55878 3.75781 1.75765C3.75781 1.95653 3.8368 2.14726 3.9774 2.2879L7.6899 6.0004L3.9774 9.7129C3.84078 9.85435 3.76519 10.0438 3.7669 10.2405C3.76861 10.4371 3.84748 10.6252 3.98654 10.7643C4.12559 10.9033 4.3137 10.9822 4.51035 10.9839C4.707 10.9856 4.89645 10.91 5.0379 10.7734L9.28065 6.53065C9.42125 6.39001 9.50024 6.19927 9.50024 6.0004C9.50024 5.80153 9.42125 5.6108 9.28065 5.47015L5.0379 1.2274C4.89726 1.0868 4.70653 1.00781 4.50765 1.00781C4.30878 1.00781 4.11805 1.0868 3.9774 1.2274Z" fill="black"/>
</svg>
