<svg width="24" height="24" viewBox="0 0 24 24" fill="none" xmlns="http://www.w3.org/2000/svg">
<path fill-rule="evenodd" clip-rule="evenodd" d="M11.4994 4.00022C8.85037 4.00022 6.73837 6.38022 7.02637 9.00022C7.05305 9.24283 6.99098 9.48689 6.85163 9.68727C6.71228 9.88764 6.50509 10.0308 6.26837 10.0902C5.5613 10.2714 4.94447 10.704 4.53328 11.3071C4.12208 11.9101 3.94469 12.6424 4.03429 13.3668C4.12389 14.0912 4.47434 14.7581 5.02008 15.2428C5.56582 15.7275 6.26946 15.9968 6.99937 16.0002H7.99937C8.26459 16.0002 8.51894 16.1056 8.70648 16.2931C8.89401 16.4806 8.99937 16.735 8.99937 17.0002C8.99937 17.2654 8.89401 17.5198 8.70648 17.7073C8.51894 17.8949 8.26459 18.0002 7.99937 18.0002H6.99937C5.85008 18.001 4.73562 17.6058 3.84356 16.8811C2.95151 16.1565 2.33632 15.1467 2.10154 14.0216C1.86676 12.8966 2.02673 11.725 2.55452 10.7041C3.08231 9.68312 3.9457 8.87518 4.99937 8.41622C5.01743 6.90015 5.56491 5.4381 6.54707 4.28304C7.52923 3.12799 8.88427 2.35262 10.3777 2.09109C11.8712 1.82957 13.4091 2.09834 14.7253 2.85092C16.0415 3.60349 17.0532 4.79251 17.5854 6.21222C18.9847 6.59812 20.1967 7.47804 20.997 8.68902C21.7973 9.9 22.1317 11.36 21.9381 12.7985C21.7446 14.2371 21.0362 15.5568 19.9443 16.5132C18.8524 17.4696 17.4509 17.9979 15.9994 18.0002C15.7342 18.0002 15.4798 17.8949 15.2923 17.7073C15.1047 17.5198 14.9994 17.2654 14.9994 17.0002C14.9994 16.735 15.1047 16.4806 15.2923 16.2931C15.4798 16.1056 15.7342 16.0002 15.9994 16.0002C17.0044 16.0017 17.9732 15.6249 18.713 14.9446C19.4527 14.2643 19.9093 13.3304 19.9919 12.3288C20.0744 11.3272 19.7769 10.3312 19.1585 9.53892C18.5401 8.74668 17.6461 8.21628 16.6544 8.05322C16.4634 8.02165 16.2855 7.93587 16.1419 7.80609C15.9983 7.67632 15.8951 7.50802 15.8444 7.32122C15.5851 6.36748 15.0192 5.52556 14.2339 4.92537C13.4487 4.32518 12.4877 4.00007 11.4994 4.00022ZM12.9994 12.4162L14.2924 13.7082C14.3853 13.8011 14.4957 13.8747 14.6171 13.9249C14.7386 13.9751 14.8687 14.0009 15.0001 14.0008C15.1315 14.0007 15.2616 13.9747 15.3829 13.9243C15.5043 13.874 15.6145 13.8002 15.7074 13.7072C15.8002 13.6142 15.8738 13.5039 15.924 13.3825C15.9742 13.261 16 13.1309 15.9999 12.9995C15.9998 12.8681 15.9739 12.738 15.9235 12.6167C15.8731 12.4953 15.7993 12.3851 15.7064 12.2922L12.8824 9.47322C12.648 9.23934 12.3305 9.10799 11.9994 9.10799C11.6683 9.10799 11.3507 9.23934 11.1164 9.47322L8.29237 12.2932C8.10473 12.4807 7.99926 12.7351 7.99917 13.0004C7.99907 13.2656 8.10436 13.5201 8.29187 13.7077C8.47938 13.8954 8.73375 14.0008 8.99902 14.0009C9.26429 14.001 9.51873 13.8957 9.70637 13.7082L10.9994 12.4162V21.0002C10.9994 21.2654 11.1047 21.5198 11.2923 21.7073C11.4798 21.8949 11.7342 22.0002 11.9994 22.0002C12.2646 22.0002 12.5189 21.8949 12.7065 21.7073C12.894 21.5198 12.9994 21.2654 12.9994 21.0002V12.4162Z" fill="#ACD67A"/>
</svg>
