<svg width="20" height="20" viewBox="0 0 20 20" fill="none" xmlns="http://www.w3.org/2000/svg">
<g clip-path="url(#clip0_430_14)">
<path d="M9.99973 15.6296C10.9457 15.6296 11.8097 15.5394 12.5977 15.3835L10.8407 13.845C10.5677 13.8634 10.2907 13.8783 9.99973 13.8783C4.64874 13.8783 2.57573 10.5105 2.07373 9.5C2.45068 8.7634 2.95978 8.08436 3.58173 7.48862L2.18373 6.26445C0.645735 7.72417 0.0627348 9.19439 0.0517348 9.22329C-0.0172449 9.40312 -0.0172449 9.59776 0.0517348 9.77758C0.0727348 9.83538 2.36673 15.6296 9.99973 15.6296ZM9.99973 3.3704C8.16273 3.3704 6.65373 3.71716 5.39573 4.22942L1.70673 1L0.292735 2.23818L18.2927 18L19.7067 16.7618L16.3877 13.8555C19.0017 12.1471 19.9347 9.81436 19.9487 9.77758C20.0177 9.59776 20.0177 9.40312 19.9487 9.22329C19.9267 9.16462 17.6327 3.3704 9.99973 3.3704ZM14.9717 12.6156L12.6917 10.6191C12.8817 10.2776 12.9997 9.90193 12.9997 9.5C12.9997 8.06305 11.6407 6.87303 9.99973 6.87303C9.54073 6.87303 9.11173 6.97636 8.72273 7.14361L6.91473 5.56042C7.90725 5.26218 8.95044 5.11383 9.99973 5.12172C15.3507 5.12172 17.4237 8.48949 17.9257 9.5C17.6237 10.106 16.7597 11.5508 14.9717 12.6156Z" fill="black"/>
</g>
<defs>
<clipPath id="clip0_430_14">
<rect width="20" height="20" fill="white"/>
</clipPath>
</defs>
</svg>
