<svg width="20" height="20" viewBox="0 0 20 20" fill="none" xmlns="http://www.w3.org/2000/svg">
<path d="M10 6.9C10.7233 6.9 11.417 7.17393 11.9285 7.66152C12.4399 8.14912 12.7273 8.81044 12.7273 9.5C12.7273 10.1896 12.4399 10.8509 11.9285 11.3385C11.417 11.8261 10.7233 12.1 10 12.1C9.27668 12.1 8.58299 11.8261 8.07153 11.3385C7.56006 10.8509 7.27273 10.1896 7.27273 9.5C7.27273 8.81044 7.56006 8.14912 8.07153 7.66152C8.58299 7.17393 9.27668 6.9 10 6.9ZM10 3C14.5455 3 18.4273 5.69533 20 9.5C18.4273 13.3047 14.5455 16 10 16C5.45455 16 1.57273 13.3047 0 9.5C1.57273 5.69533 5.45455 3 10 3ZM1.98182 9.5C2.71659 10.9303 3.85755 12.1353 5.27498 12.9782C6.69241 13.821 8.32945 14.2678 10 14.2678C11.6705 14.2678 13.3076 13.821 14.725 12.9782C16.1424 12.1353 17.2834 10.9303 18.0182 9.5C17.2834 8.06973 16.1424 6.86469 14.725 6.02185C13.3076 5.17901 11.6705 4.73219 10 4.73219C8.32945 4.73219 6.69241 5.17901 5.27498 6.02185C3.85755 6.86469 2.71659 8.06973 1.98182 9.5Z" fill="black"/>
</svg>
