<svg width="80" height="80" viewBox="0 0 80 80" fill="none" xmlns="http://www.w3.org/2000/svg">
<rect width="80" height="80" rx="40" fill="white"/>
<path d="M39.5 42.625C47.9569 42.625 54.8125 35.7694 54.8125 27.3125C54.8125 18.8556 47.9569 12 39.5 12C31.0431 12 24.1875 18.8556 24.1875 27.3125C24.1875 35.7694 31.0431 42.625 39.5 42.625Z" fill="#4A8700" stroke="black" stroke-width="2" stroke-linecap="round" stroke-linejoin="round"/>
<path d="M64 67.125C64 60.6272 61.4188 54.3955 56.8241 49.8009C52.2295 45.2062 45.9978 42.625 39.5 42.625C33.0022 42.625 26.7705 45.2062 22.1759 49.8009C17.5812 54.3955 15 60.6272 15 67.125" fill="#4A8700"/>
<path d="M64 67.125C64 60.6272 61.4188 54.3955 56.8241 49.8009C52.2295 45.2062 45.9978 42.625 39.5 42.625C33.0022 42.625 26.7705 45.2062 22.1759 49.8009C17.5812 54.3955 15 60.6272 15 67.125" stroke="black" stroke-width="2" stroke-linecap="round" stroke-linejoin="round"/>
<path d="M39.5 42.625C33.0022 42.625 26.7705 45.2062 22.1759 49.8009C17.5812 54.3955 15 60.6272 15 67.125H64C64 60.6272 61.4188 54.3955 56.8241 49.8009C52.2295 45.2062 45.9978 42.625 39.5 42.625Z" fill="#4A8700" stroke="black" stroke-width="2" stroke-linecap="round" stroke-linejoin="round"/>
</svg>
